<svg width="573" height="390" viewBox="0 0 573 390" fill="none" xmlns="http://www.w3.org/2000/svg">
<path d="M481.148 0H0V258.874H481.148V0Z" fill="#3F3D56"/>
<path d="M91.2229 36.497H86.98V43.2872H91.2229V36.497Z" fill="#6C63FF"/>
<path d="M105.649 34.7995H101.406V41.5896H105.649V34.7995Z" fill="#6C63FF"/>
<path d="M113.286 34.7995H109.043V41.5896H113.286V34.7995Z" fill="#6C63FF"/>
<path d="M113.286 55.1699H109.043V61.9601H113.286V55.1699Z" fill="#6C63FF"/>
<path d="M121.772 44.9847H117.529V51.7749H121.772V44.9847Z" fill="#6C63FF"/>
<path d="M121.772 56.0187H117.529V62.8088H121.772V56.0187Z" fill="#6C63FF"/>
<path d="M113.286 77.2379H109.043V84.0281H113.286V77.2379Z" fill="#6C63FF"/>
<path d="M121.772 88.2719H117.529V95.0621H121.772V88.2719Z" fill="#6C63FF"/>
<path d="M113.286 129.862H109.043V136.652H113.286V129.862Z" fill="#6C63FF"/>
<path d="M105.649 88.2719H101.406V95.0621H105.649V88.2719Z" fill="#6C63FF"/>
<path d="M91.2229 47.531H86.98V54.3212H91.2229V47.531Z" fill="#6C63FF"/>
<path d="M91.2229 153.627H86.98V160.417H91.2229V153.627Z" fill="#6C63FF"/>
<path d="M91.2229 175.695H86.98V182.485H91.2229V175.695Z" fill="#6C63FF"/>
<path d="M91.2229 186.729H86.98V193.519H91.2229V186.729Z" fill="#6C63FF"/>
<path d="M91.2229 59.4138H85.2828V60.2626H91.2229V59.4138Z" fill="#6C63FF"/>
<path d="M114.135 69.599H108.195V70.4478H114.135V69.599Z" fill="#6C63FF"/>
<path d="M91.2229 113.735H85.2828V114.584H91.2229V113.735Z" fill="#6C63FF"/>
<path d="M91.2229 123.071H85.2828V123.92H91.2229V123.071Z" fill="#6C63FF"/>
<path d="M114.135 177.393H108.195V178.241H114.135V177.393Z" fill="#6C63FF"/>
<path d="M107.346 197.763H101.406V198.612H107.346V197.763Z" fill="#6C63FF"/>
<path d="M86.98 67.0529V68.7502H88.6769V72.1454H86.98V73.8427H91.2229V67.0529H86.98Z" fill="#6C63FF"/>
<path d="M101.406 55.1701V56.8674H103.103V60.2626H101.406V61.9599H105.649V55.1701H101.406Z" fill="#6C63FF"/>
<path d="M117.529 66.2037V67.9016H119.226V71.2968H117.529V72.9941H121.772V66.2037H117.529Z" fill="#6C63FF"/>
<path d="M117.529 99.3061V101.003H119.226V104.399H117.529V106.096H121.772V99.3061H117.529Z" fill="#6C63FF"/>
<path d="M117.529 110.34V112.038H119.226V115.433H117.529V117.13H121.772V110.34H117.529Z" fill="#6C63FF"/>
<path d="M117.529 76.3892V78.0865H119.226V81.4817H117.529V83.1795H121.772V76.3892H117.529Z" fill="#6C63FF"/>
<path d="M109.043 44.9846V46.6825H110.74V50.0771H109.043V51.775H113.286V44.9846H109.043Z" fill="#6C63FF"/>
<path d="M113.286 99.3059H109.043V106.096H113.286V99.3059Z" fill="#6C63FF"/>
<path d="M113.286 119.676H109.043V126.466H113.286V119.676Z" fill="#6C63FF"/>
<path d="M109.043 109.491V111.188H110.74V114.584H109.043V116.281H113.286V109.491H109.043Z" fill="#6C63FF"/>
<path d="M101.406 66.2037V67.9016H103.103V71.2968H101.406V72.9941H105.649V66.2037H101.406Z" fill="#6C63FF"/>
<path d="M101.406 77.2379V78.9357H103.103V82.3303H101.406V84.0282H105.649V77.2379H101.406Z" fill="#6C63FF"/>
<path d="M105.649 110.34H101.406V117.13H105.649V110.34Z" fill="#6C63FF"/>
<path d="M101.406 99.3061V101.003H103.103V104.399H101.406V106.096H105.649V99.3061H101.406Z" fill="#6C63FF"/>
<path d="M105.649 132.408H101.406V139.198H105.649V132.408Z" fill="#6C63FF"/>
<path d="M101.406 121.374V123.071H103.103V126.466H101.406V128.164H105.649V121.374H101.406Z" fill="#6C63FF"/>
<path d="M105.649 154.476H101.406V161.266H105.649V154.476Z" fill="#6C63FF"/>
<path d="M113.286 152.778H109.043V159.568H113.286V152.778Z" fill="#6C63FF"/>
<path d="M101.406 143.442V145.139H103.103V148.535H101.406V150.232H105.649V143.442H101.406Z" fill="#6C63FF"/>
<path d="M117.529 143.442V145.139H119.226V148.535H117.529V150.232H121.772V143.442H117.529Z" fill="#6C63FF"/>
<path d="M165.05 44.9847H160.807V51.7749H165.05V44.9847Z" fill="#6C63FF"/>
<path d="M165.05 56.0187H160.807V62.8088H165.05V56.0187Z" fill="#6C63FF"/>
<path d="M165.05 88.2719H160.807V95.0621H165.05V88.2719Z" fill="#6C63FF"/>
<path d="M160.807 66.2037V67.9016H162.504V71.2968H160.807V72.9941H165.05V66.2037H160.807Z" fill="#6C63FF"/>
<path d="M160.807 99.3061V101.003H162.504V104.399H160.807V106.096H165.05V99.3061H160.807Z" fill="#6C63FF"/>
<path d="M160.807 110.34V112.038H162.504V115.433H160.807V117.13H165.05V110.34H160.807Z" fill="#6C63FF"/>
<path d="M160.807 76.3892V78.0865H162.504V81.4817H160.807V83.1795H165.05V76.3892H160.807Z" fill="#6C63FF"/>
<path d="M160.807 143.442V145.139H162.504V148.535H160.807V150.232H165.05V143.442H160.807Z" fill="#6C63FF"/>
<path d="M105.649 176.544H101.406V183.334H105.649V176.544Z" fill="#6C63FF"/>
<path d="M113.286 163.812H109.043V170.602H113.286V163.812Z" fill="#6C63FF"/>
<path d="M105.649 205.402H101.406V212.192H105.649V205.402Z" fill="#6C63FF"/>
<path d="M113.286 185.031H109.043V191.822H113.286V185.031Z" fill="#6C63FF"/>
<path d="M101.406 165.51V167.207H103.103V170.602H101.406V172.3H105.649V165.51H101.406Z" fill="#6C63FF"/>
<path d="M101.406 217.285V218.982H103.103V222.377H101.406V224.075H105.649V217.285H101.406Z" fill="#6C63FF"/>
<path d="M152.321 34.7995H148.078V41.5896H152.321V34.7995Z" fill="#6C63FF"/>
<path d="M152.321 88.2719H148.078V95.0621H152.321V88.2719Z" fill="#6C63FF"/>
<path d="M154.018 197.763H148.078V198.612H154.018V197.763Z" fill="#6C63FF"/>
<path d="M148.078 55.1701V56.8674H149.776V60.2626H148.078V61.9599H152.321V55.1701H148.078Z" fill="#6C63FF"/>
<path d="M148.078 66.2037V67.9016H149.776V71.2968H148.078V72.9941H152.321V66.2037H148.078Z" fill="#6C63FF"/>
<path d="M148.078 77.2379V78.9357H149.776V82.3303H148.078V84.0282H152.321V77.2379H148.078Z" fill="#6C63FF"/>
<path d="M152.321 110.34H148.078V117.13H152.321V110.34Z" fill="#6C63FF"/>
<path d="M148.078 99.3061V101.003H149.776V104.399H148.078V106.096H152.321V99.3061H148.078Z" fill="#6C63FF"/>
<path d="M152.321 132.408H148.078V139.198H152.321V132.408Z" fill="#6C63FF"/>
<path d="M148.078 121.374V123.071H149.776V126.466H148.078V128.164H152.321V121.374H148.078Z" fill="#6C63FF"/>
<path d="M152.321 154.476H148.078V161.266H152.321V154.476Z" fill="#6C63FF"/>
<path d="M148.078 143.442V145.139H149.776V148.535H148.078V150.232H152.321V143.442H148.078Z" fill="#6C63FF"/>
<path d="M152.321 176.544H148.078V183.334H152.321V176.544Z" fill="#6C63FF"/>
<path d="M152.321 205.402H148.078V212.192H152.321V205.402Z" fill="#6C63FF"/>
<path d="M148.078 165.51V167.207H149.776V170.602H148.078V172.3H152.321V165.51H148.078Z" fill="#6C63FF"/>
<path d="M148.078 217.285V218.982H149.776V222.377H148.078V224.075H152.321V217.285H148.078Z" fill="#6C63FF"/>
<path d="M172.687 34.7995H168.444V41.5896H172.687V34.7995Z" fill="#6C63FF"/>
<path d="M172.687 88.2719H168.444V95.0621H172.687V88.2719Z" fill="#6C63FF"/>
<path d="M174.384 197.763H168.444V198.612H174.384V197.763Z" fill="#6C63FF"/>
<path d="M168.444 55.1701V56.8674H170.142V60.2626H168.444V61.9599H172.687V55.1701H168.444Z" fill="#6C63FF"/>
<path d="M168.444 66.2037V67.9016H170.142V71.2968H168.444V72.9941H172.687V66.2037H168.444Z" fill="#6C63FF"/>
<path d="M168.444 77.2379V78.9357H170.142V82.3303H168.444V84.0282H172.687V77.2379H168.444Z" fill="#6C63FF"/>
<path d="M172.687 110.34H168.444V117.13H172.687V110.34Z" fill="#6C63FF"/>
<path d="M168.444 99.3061V101.003H170.142V104.399H168.444V106.096H172.687V99.3061H168.444Z" fill="#6C63FF"/>
<path d="M172.687 132.408H168.444V139.198H172.687V132.408Z" fill="#6C63FF"/>
<path d="M168.444 121.374V123.071H170.142V126.466H168.444V128.164H172.687V121.374H168.444Z" fill="#6C63FF"/>
<path d="M172.687 154.476H168.444V161.266H172.687V154.476Z" fill="#6C63FF"/>
<path d="M168.444 143.442V145.139H170.142V148.535H168.444V150.232H172.687V143.442H168.444Z" fill="#6C63FF"/>
<path d="M172.687 176.544H168.444V183.334H172.687V176.544Z" fill="#6C63FF"/>
<path d="M172.687 205.402H168.444V212.192H172.687V205.402Z" fill="#6C63FF"/>
<path d="M168.444 165.51V167.207H170.142V170.602H168.444V172.3H172.687V165.51H168.444Z" fill="#6C63FF"/>
<path d="M168.444 217.285V218.982H170.142V222.377H168.444V224.075H172.687V217.285H168.444Z" fill="#6C63FF"/>
<path d="M109.043 205.402V207.099H110.74V210.495H109.043V212.192H113.286V205.402H109.043Z" fill="#6C63FF"/>
<path d="M109.043 216.436V218.133H110.74V221.529H109.043V223.226H113.286V216.436H109.043Z" fill="#6C63FF"/>
<path d="M86.98 88.272V89.9693H88.6769V93.3645H86.98V95.0623H91.2229V88.272H86.98Z" fill="#6C63FF"/>
<path d="M86.98 131.559V133.257H88.6769V136.652H86.98V138.349H91.2229V131.559H86.98Z" fill="#6C63FF"/>
<path d="M86.98 142.593V144.291H88.6769V147.686H86.98V149.383H91.2229V142.593H86.98Z" fill="#6C63FF"/>
<path d="M86.98 164.661V166.359H88.6769V169.754H86.98V171.451H91.2229V164.661H86.98Z" fill="#6C63FF"/>
<path d="M86.98 196.065V197.763H88.6769V201.158H86.98V202.856H91.2229V196.065H86.98Z" fill="#6C63FF"/>
<path d="M86.98 205.402V207.099H88.6769V210.495H86.98V212.192H91.2229V205.402H86.98Z" fill="#6C63FF"/>
<path d="M135.349 36.497H131.106V43.2872H135.349V36.497Z" fill="#6C63FF"/>
<path d="M135.349 47.531H131.106V54.3212H135.349V47.531Z" fill="#6C63FF"/>
<path d="M135.349 59.4138H129.409V60.2626H135.349V59.4138Z" fill="#6C63FF"/>
<path d="M135.349 113.735H129.409V114.584H135.349V113.735Z" fill="#6C63FF"/>
<path d="M135.349 123.071H129.409V123.92H135.349V123.071Z" fill="#6C63FF"/>
<path d="M131.106 67.0529V68.7502H132.803V72.1454H131.106V73.8427H135.349V67.0529H131.106Z" fill="#6C63FF"/>
<path d="M131.106 88.272V89.9693H132.803V93.3645H131.106V95.0623H135.349V88.272H131.106Z" fill="#6C63FF"/>
<path d="M131.106 131.559V133.257H132.803V136.652H131.106V138.349H135.349V131.559H131.106Z" fill="#6C63FF"/>
<path d="M183.719 110.34H179.476V117.13H183.719V110.34Z" fill="#6C63FF"/>
<path d="M183.719 121.374H179.476V128.164H183.719V121.374Z" fill="#6C63FF"/>
<path d="M183.719 133.257H177.779V134.105H183.719V133.257Z" fill="#6C63FF"/>
<path d="M183.719 187.578H177.779V188.427H183.719V187.578Z" fill="#6C63FF"/>
<path d="M183.719 196.914H177.779V197.763H183.719V196.914Z" fill="#6C63FF"/>
<path d="M179.476 140.896V142.593H181.173V145.988H179.476V147.686H183.719V140.896H179.476Z" fill="#6C63FF"/>
<path d="M179.476 162.115V163.813H181.173V167.207H179.476V168.905H183.719V162.115H179.476Z" fill="#6C63FF"/>
<path d="M179.476 205.402V207.099H181.173V210.495H179.476V212.192H183.719V205.402H179.476Z" fill="#6C63FF"/>
<path d="M197.296 36.497H193.053V43.2872H197.296V36.497Z" fill="#6C63FF"/>
<path d="M211.722 34.7995H207.479V41.5896H211.722V34.7995Z" fill="#6C63FF"/>
<path d="M219.359 34.7995H215.116V41.5896H219.359V34.7995Z" fill="#6C63FF"/>
<path d="M219.359 55.1699H215.116V61.9601H219.359V55.1699Z" fill="#6C63FF"/>
<path d="M227.845 44.9847H223.602V51.7749H227.845V44.9847Z" fill="#6C63FF"/>
<path d="M227.845 56.0187H223.602V62.8088H227.845V56.0187Z" fill="#6C63FF"/>
<path d="M219.359 77.2379H215.116V84.0281H219.359V77.2379Z" fill="#6C63FF"/>
<path d="M227.845 88.2719H223.602V95.0621H227.845V88.2719Z" fill="#6C63FF"/>
<path d="M219.359 129.862H215.116V136.652H219.359V129.862Z" fill="#6C63FF"/>
<path d="M211.722 88.2719H207.479V95.0621H211.722V88.2719Z" fill="#6C63FF"/>
<path d="M197.296 47.531H193.053V54.3212H197.296V47.531Z" fill="#6C63FF"/>
<path d="M197.296 153.627H193.053V160.417H197.296V153.627Z" fill="#6C63FF"/>
<path d="M197.296 175.695H193.053V182.485H197.296V175.695Z" fill="#6C63FF"/>
<path d="M197.296 186.729H193.053V193.519H197.296V186.729Z" fill="#6C63FF"/>
<path d="M197.296 59.4138H191.356V60.2626H197.296V59.4138Z" fill="#6C63FF"/>
<path d="M220.208 69.599H214.268V70.4478H220.208V69.599Z" fill="#6C63FF"/>
<path d="M197.296 113.735H191.356V114.584H197.296V113.735Z" fill="#6C63FF"/>
<path d="M197.296 123.071H191.356V123.92H197.296V123.071Z" fill="#6C63FF"/>
<path d="M220.208 177.393H214.268V178.241H220.208V177.393Z" fill="#6C63FF"/>
<path d="M213.419 197.763H207.479V198.612H213.419V197.763Z" fill="#6C63FF"/>
<path d="M193.053 67.0529V68.7502H194.751V72.1454H193.053V73.8427H197.296V67.0529H193.053Z" fill="#6C63FF"/>
<path d="M207.479 55.1701V56.8674H209.176V60.2626H207.479V61.9599H211.722V55.1701H207.479Z" fill="#6C63FF"/>
<path d="M223.602 66.2037V67.9016H225.299V71.2968H223.602V72.9941H227.845V66.2037H223.602Z" fill="#6C63FF"/>
<path d="M223.602 99.3061V101.003H225.299V104.399H223.602V106.096H227.845V99.3061H223.602Z" fill="#6C63FF"/>
<path d="M223.602 110.34V112.038H225.299V115.433H223.602V117.13H227.845V110.34H223.602Z" fill="#6C63FF"/>
<path d="M223.602 76.3892V78.0865H225.299V81.4817H223.602V83.1795H227.845V76.3892H223.602Z" fill="#6C63FF"/>
<path d="M215.117 44.9846V46.6825H216.814V50.0771H215.117V51.775H219.359V44.9846H215.117Z" fill="#6C63FF"/>
<path d="M219.359 99.3059H215.116V106.096H219.359V99.3059Z" fill="#6C63FF"/>
<path d="M219.359 119.676H215.116V126.466H219.359V119.676Z" fill="#6C63FF"/>
<path d="M215.117 109.491V111.188H216.814V114.584H215.117V116.281H219.359V109.491H215.117Z" fill="#6C63FF"/>
<path d="M207.479 66.2037V67.9016H209.176V71.2968H207.479V72.9941H211.722V66.2037H207.479Z" fill="#6C63FF"/>
<path d="M207.479 77.2379V78.9357H209.176V82.3303H207.479V84.0282H211.722V77.2379H207.479Z" fill="#6C63FF"/>
<path d="M211.722 110.34H207.479V117.13H211.722V110.34Z" fill="#6C63FF"/>
<path d="M207.479 99.3061V101.003H209.176V104.399H207.479V106.096H211.722V99.3061H207.479Z" fill="#6C63FF"/>
<path d="M211.722 132.408H207.479V139.198H211.722V132.408Z" fill="#6C63FF"/>
<path d="M207.479 121.374V123.071H209.176V126.466H207.479V128.164H211.722V121.374H207.479Z" fill="#6C63FF"/>
<path d="M211.722 154.476H207.479V161.266H211.722V154.476Z" fill="#6C63FF"/>
<path d="M219.359 152.778H215.116V159.568H219.359V152.778Z" fill="#6C63FF"/>
<path d="M207.479 143.442V145.139H209.176V148.535H207.479V150.232H211.722V143.442H207.479Z" fill="#6C63FF"/>
<path d="M223.602 143.442V145.139H225.299V148.535H223.602V150.232H227.845V143.442H223.602Z" fill="#6C63FF"/>
<path d="M271.123 44.9847H266.88V51.7749H271.123V44.9847Z" fill="#6C63FF"/>
<path d="M271.123 56.0187H266.88V62.8088H271.123V56.0187Z" fill="#6C63FF"/>
<path d="M271.123 88.2719H266.88V95.0621H271.123V88.2719Z" fill="#6C63FF"/>
<path d="M266.88 66.2037V67.9016H268.577V71.2968H266.88V72.9941H271.123V66.2037H266.88Z" fill="#6C63FF"/>
<path d="M266.88 99.3061V101.003H268.577V104.399H266.88V106.096H271.123V99.3061H266.88Z" fill="#6C63FF"/>
<path d="M266.88 110.34V112.038H268.577V115.433H266.88V117.13H271.123V110.34H266.88Z" fill="#6C63FF"/>
<path d="M266.88 76.3892V78.0865H268.577V81.4817H266.88V83.1795H271.123V76.3892H266.88Z" fill="#6C63FF"/>
<path d="M266.88 143.442V145.139H268.577V148.535H266.88V150.232H271.123V143.442H266.88Z" fill="#6C63FF"/>
<path d="M211.722 176.544H207.479V183.334H211.722V176.544Z" fill="#6C63FF"/>
<path d="M219.359 163.812H215.116V170.602H219.359V163.812Z" fill="#6C63FF"/>
<path d="M211.722 205.402H207.479V212.192H211.722V205.402Z" fill="#6C63FF"/>
<path d="M219.359 185.031H215.116V191.822H219.359V185.031Z" fill="#6C63FF"/>
<path d="M207.479 165.51V167.207H209.176V170.602H207.479V172.3H211.722V165.51H207.479Z" fill="#6C63FF"/>
<path d="M207.479 217.285V218.982H209.176V222.377H207.479V224.075H211.722V217.285H207.479Z" fill="#6C63FF"/>
<path d="M258.394 34.7995H254.151V41.5896H258.394V34.7995Z" fill="#6C63FF"/>
<path d="M258.394 88.2719H254.151V95.0621H258.394V88.2719Z" fill="#6C63FF"/>
<path d="M260.091 197.763H254.151V198.612H260.091V197.763Z" fill="#6C63FF"/>
<path d="M254.151 55.1701V56.8674H255.849V60.2626H254.151V61.9599H258.394V55.1701H254.151Z" fill="#6C63FF"/>
<path d="M254.151 66.2037V67.9016H255.849V71.2968H254.151V72.9941H258.394V66.2037H254.151Z" fill="#6C63FF"/>
<path d="M254.151 77.2379V78.9357H255.849V82.3303H254.151V84.0282H258.394V77.2379H254.151Z" fill="#6C63FF"/>
<path d="M258.394 110.34H254.151V117.13H258.394V110.34Z" fill="#6C63FF"/>
<path d="M254.151 99.3061V101.003H255.849V104.399H254.151V106.096H258.394V99.3061H254.151Z" fill="#6C63FF"/>
<path d="M258.394 132.408H254.151V139.198H258.394V132.408Z" fill="#6C63FF"/>
<path d="M254.151 121.374V123.071H255.849V126.466H254.151V128.164H258.394V121.374H254.151Z" fill="#6C63FF"/>
<path d="M258.394 154.476H254.151V161.266H258.394V154.476Z" fill="#6C63FF"/>
<path d="M254.151 143.442V145.139H255.849V148.535H254.151V150.232H258.394V143.442H254.151Z" fill="#6C63FF"/>
<path d="M258.394 176.544H254.151V183.334H258.394V176.544Z" fill="#6C63FF"/>
<path d="M258.394 205.402H254.151V212.192H258.394V205.402Z" fill="#6C63FF"/>
<path d="M254.151 165.51V167.207H255.849V170.602H254.151V172.3H258.394V165.51H254.151Z" fill="#6C63FF"/>
<path d="M254.151 217.285V218.982H255.849V222.377H254.151V224.075H258.394V217.285H254.151Z" fill="#6C63FF"/>
<path d="M278.76 34.7995H274.517V41.5896H278.76V34.7995Z" fill="#6C63FF"/>
<path d="M278.76 88.2719H274.517V95.0621H278.76V88.2719Z" fill="#6C63FF"/>
<path d="M280.458 197.763H274.517V198.612H280.458V197.763Z" fill="#6C63FF"/>
<path d="M274.517 55.1701V56.8674H276.215V60.2626H274.517V61.9599H278.76V55.1701H274.517Z" fill="#6C63FF"/>
<path d="M274.517 66.2037V67.9016H276.215V71.2968H274.517V72.9941H278.76V66.2037H274.517Z" fill="#6C63FF"/>
<path d="M274.517 77.2379V78.9357H276.215V82.3303H274.517V84.0282H278.76V77.2379H274.517Z" fill="#6C63FF"/>
<path d="M278.76 110.34H274.517V117.13H278.76V110.34Z" fill="#6C63FF"/>
<path d="M274.517 99.3061V101.003H276.215V104.399H274.517V106.096H278.76V99.3061H274.517Z" fill="#6C63FF"/>
<path d="M278.76 132.408H274.517V139.198H278.76V132.408Z" fill="#6C63FF"/>
<path d="M274.517 121.374V123.071H276.215V126.466H274.517V128.164H278.76V121.374H274.517Z" fill="#6C63FF"/>
<path d="M278.76 154.476H274.517V161.266H278.76V154.476Z" fill="#6C63FF"/>
<path d="M274.517 143.442V145.139H276.215V148.535H274.517V150.232H278.76V143.442H274.517Z" fill="#6C63FF"/>
<path d="M278.76 176.544H274.517V183.334H278.76V176.544Z" fill="#6C63FF"/>
<path d="M278.76 205.402H274.517V212.192H278.76V205.402Z" fill="#6C63FF"/>
<path d="M274.517 165.51V167.207H276.215V170.602H274.517V172.3H278.76V165.51H274.517Z" fill="#6C63FF"/>
<path d="M274.517 217.285V218.982H276.215V222.377H274.517V224.075H278.76V217.285H274.517Z" fill="#6C63FF"/>
<path d="M215.117 205.402V207.099H216.814V210.495H215.117V212.192H219.359V205.402H215.117Z" fill="#6C63FF"/>
<path d="M215.117 216.436V218.133H216.814V221.529H215.117V223.226H219.359V216.436H215.117Z" fill="#6C63FF"/>
<path d="M193.053 88.272V89.9693H194.751V93.3645H193.053V95.0623H197.296V88.272H193.053Z" fill="#6C63FF"/>
<path d="M193.053 131.559V133.257H194.751V136.652H193.053V138.349H197.296V131.559H193.053Z" fill="#6C63FF"/>
<path d="M193.053 142.593V144.291H194.751V147.686H193.053V149.383H197.296V142.593H193.053Z" fill="#6C63FF"/>
<path d="M193.053 164.661V166.359H194.751V169.754H193.053V171.451H197.296V164.661H193.053Z" fill="#6C63FF"/>
<path d="M193.053 196.065V197.763H194.751V201.158H193.053V202.856H197.296V196.065H193.053Z" fill="#6C63FF"/>
<path d="M193.053 205.402V207.099H194.751V210.495H193.053V212.192H197.296V205.402H193.053Z" fill="#6C63FF"/>
<path d="M241.423 36.497H237.18V43.2872H241.423V36.497Z" fill="#6C63FF"/>
<path d="M241.423 47.531H237.18V54.3212H241.423V47.531Z" fill="#6C63FF"/>
<path d="M241.423 59.4138H235.482V60.2626H241.423V59.4138Z" fill="#6C63FF"/>
<path d="M241.423 113.735H235.482V114.584H241.423V113.735Z" fill="#6C63FF"/>
<path d="M241.423 123.071H235.482V123.92H241.423V123.071Z" fill="#6C63FF"/>
<path d="M237.18 67.0529V68.7502H238.877V72.1454H237.18V73.8427H241.422V67.0529H237.18Z" fill="#6C63FF"/>
<path d="M237.18 88.272V89.9693H238.877V93.3645H237.18V95.0623H241.422V88.272H237.18Z" fill="#6C63FF"/>
<path d="M237.18 131.559V133.257H238.877V136.652H237.18V138.349H241.422V131.559H237.18Z" fill="#6C63FF"/>
<path d="M289.792 110.34H285.549V117.13H289.792V110.34Z" fill="#6C63FF"/>
<path d="M289.792 121.374H285.549V128.164H289.792V121.374Z" fill="#6C63FF"/>
<path d="M289.792 133.257H283.852V134.105H289.792V133.257Z" fill="#6C63FF"/>
<path d="M289.792 187.578H283.852V188.427H289.792V187.578Z" fill="#6C63FF"/>
<path d="M289.792 196.914H283.852V197.763H289.792V196.914Z" fill="#6C63FF"/>
<path d="M285.549 140.896V142.593H287.246V145.988H285.549V147.686H289.792V140.896H285.549Z" fill="#6C63FF"/>
<path d="M285.549 162.115V163.813H287.246V167.207H285.549V168.905H289.792V162.115H285.549Z" fill="#6C63FF"/>
<path d="M285.549 205.402V207.099H287.246V210.495H285.549V212.192H289.792V205.402H285.549Z" fill="#6C63FF"/>
<path d="M303.369 36.497H299.126V43.2872H303.369V36.497Z" fill="#6C63FF"/>
<path d="M317.795 34.7995H313.552V41.5896H317.795V34.7995Z" fill="#6C63FF"/>
<path d="M325.433 34.7995H321.19V41.5896H325.433V34.7995Z" fill="#6C63FF"/>
<path d="M325.433 55.1699H321.19V61.9601H325.433V55.1699Z" fill="#6C63FF"/>
<path d="M333.918 44.9847H329.675V51.7749H333.918V44.9847Z" fill="#6C63FF"/>
<path d="M333.918 56.0187H329.675V62.8088H333.918V56.0187Z" fill="#6C63FF"/>
<path d="M325.433 77.2379H321.19V84.0281H325.433V77.2379Z" fill="#6C63FF"/>
<path d="M333.918 88.2719H329.675V95.0621H333.918V88.2719Z" fill="#6C63FF"/>
<path d="M325.433 129.862H321.19V136.652H325.433V129.862Z" fill="#6C63FF"/>
<path d="M317.795 88.2719H313.552V95.0621H317.795V88.2719Z" fill="#6C63FF"/>
<path d="M303.369 47.531H299.126V54.3212H303.369V47.531Z" fill="#6C63FF"/>
<path d="M303.369 153.627H299.126V160.417H303.369V153.627Z" fill="#6C63FF"/>
<path d="M303.369 175.695H299.126V182.485H303.369V175.695Z" fill="#6C63FF"/>
<path d="M303.369 186.729H299.126V193.519H303.369V186.729Z" fill="#6C63FF"/>
<path d="M303.369 59.4138H297.429V60.2626H303.369V59.4138Z" fill="#6C63FF"/>
<path d="M326.281 69.599H320.341V70.4478H326.281V69.599Z" fill="#6C63FF"/>
<path d="M303.369 113.735H297.429V114.584H303.369V113.735Z" fill="#6C63FF"/>
<path d="M303.369 123.071H297.429V123.92H303.369V123.071Z" fill="#6C63FF"/>
<path d="M326.281 177.393H320.341V178.241H326.281V177.393Z" fill="#6C63FF"/>
<path d="M319.492 197.763H313.552V198.612H319.492V197.763Z" fill="#6C63FF"/>
<path d="M299.126 67.0529V68.7502H300.824V72.1454H299.126V73.8427H303.37V67.0529H299.126Z" fill="#6C63FF"/>
<path d="M313.552 55.1701V56.8674H315.249V60.2626H313.552V61.9599H317.795V55.1701H313.552Z" fill="#6C63FF"/>
<path d="M329.675 66.2037V67.9016H331.372V71.2968H329.675V72.9941H333.918V66.2037H329.675Z" fill="#6C63FF"/>
<path d="M329.675 99.3061V101.003H331.372V104.399H329.675V106.096H333.918V99.3061H329.675Z" fill="#6C63FF"/>
<path d="M329.675 110.34V112.038H331.372V115.433H329.675V117.13H333.918V110.34H329.675Z" fill="#6C63FF"/>
<path d="M329.675 76.3892V78.0865H331.372V81.4817H329.675V83.1795H333.918V76.3892H329.675Z" fill="#6C63FF"/>
<path d="M321.19 44.9846V46.6825H322.887V50.0771H321.19V51.775H325.433V44.9846H321.19Z" fill="#6C63FF"/>
<path d="M325.433 99.3059H321.19V106.096H325.433V99.3059Z" fill="#6C63FF"/>
<path d="M325.433 119.676H321.19V126.466H325.433V119.676Z" fill="#6C63FF"/>
<path d="M321.19 109.491V111.188H322.887V114.584H321.19V116.281H325.433V109.491H321.19Z" fill="#6C63FF"/>
<path d="M313.552 66.2037V67.9016H315.249V71.2968H313.552V72.9941H317.795V66.2037H313.552Z" fill="#6C63FF"/>
<path d="M313.552 77.2379V78.9357H315.249V82.3303H313.552V84.0282H317.795V77.2379H313.552Z" fill="#6C63FF"/>
<path d="M317.795 110.34H313.552V117.13H317.795V110.34Z" fill="#6C63FF"/>
<path d="M313.552 99.3061V101.003H315.249V104.399H313.552V106.096H317.795V99.3061H313.552Z" fill="#6C63FF"/>
<path d="M317.795 132.408H313.552V139.198H317.795V132.408Z" fill="#6C63FF"/>
<path d="M313.552 121.374V123.071H315.249V126.466H313.552V128.164H317.795V121.374H313.552Z" fill="#6C63FF"/>
<path d="M317.795 154.476H313.552V161.266H317.795V154.476Z" fill="#6C63FF"/>
<path d="M325.433 152.778H321.19V159.568H325.433V152.778Z" fill="#6C63FF"/>
<path d="M313.552 143.442V145.139H315.249V148.535H313.552V150.232H317.795V143.442H313.552Z" fill="#6C63FF"/>
<path d="M329.675 143.442V145.139H331.372V148.535H329.675V150.232H333.918V143.442H329.675Z" fill="#6C63FF"/>
<path d="M377.196 44.9847H372.953V51.7749H377.196V44.9847Z" fill="#6C63FF"/>
<path d="M377.196 56.0187H372.953V62.8088H377.196V56.0187Z" fill="#6C63FF"/>
<path d="M377.196 88.2719H372.953V95.0621H377.196V88.2719Z" fill="#6C63FF"/>
<path d="M372.954 66.2037V67.9016H374.65V71.2968H372.954V72.9941H377.196V66.2037H372.954Z" fill="#6C63FF"/>
<path d="M372.954 99.3061V101.003H374.65V104.399H372.954V106.096H377.196V99.3061H372.954Z" fill="#6C63FF"/>
<path d="M372.954 110.34V112.038H374.65V115.433H372.954V117.13H377.196V110.34H372.954Z" fill="#6C63FF"/>
<path d="M372.954 76.3892V78.0865H374.65V81.4817H372.954V83.1795H377.196V76.3892H372.954Z" fill="#6C63FF"/>
<path d="M372.954 143.442V145.139H374.65V148.535H372.954V150.232H377.196V143.442H372.954Z" fill="#6C63FF"/>
<path d="M317.795 176.544H313.552V183.334H317.795V176.544Z" fill="#6C63FF"/>
<path d="M325.433 163.812H321.19V170.602H325.433V163.812Z" fill="#6C63FF"/>
<path d="M317.795 205.402H313.552V212.192H317.795V205.402Z" fill="#6C63FF"/>
<path d="M325.433 185.031H321.19V191.822H325.433V185.031Z" fill="#6C63FF"/>
<path d="M313.552 165.51V167.207H315.249V170.602H313.552V172.3H317.795V165.51H313.552Z" fill="#6C63FF"/>
<path d="M313.552 217.285V218.982H315.249V222.377H313.552V224.075H317.795V217.285H313.552Z" fill="#6C63FF"/>
<path d="M364.467 34.7995H360.225V41.5896H364.467V34.7995Z" fill="#6C63FF"/>
<path d="M364.467 88.2719H360.225V95.0621H364.467V88.2719Z" fill="#6C63FF"/>
<path d="M366.165 197.763H360.225V198.612H366.165V197.763Z" fill="#6C63FF"/>
<path d="M360.225 55.1701V56.8674H361.922V60.2626H360.225V61.9599H364.468V55.1701H360.225Z" fill="#6C63FF"/>
<path d="M360.225 66.2037V67.9016H361.922V71.2968H360.225V72.9941H364.468V66.2037H360.225Z" fill="#6C63FF"/>
<path d="M360.225 77.2379V78.9357H361.922V82.3303H360.225V84.0282H364.468V77.2379H360.225Z" fill="#6C63FF"/>
<path d="M364.467 110.34H360.225V117.13H364.467V110.34Z" fill="#6C63FF"/>
<path d="M360.225 99.3061V101.003H361.922V104.399H360.225V106.096H364.468V99.3061H360.225Z" fill="#6C63FF"/>
<path d="M364.467 132.408H360.225V139.198H364.467V132.408Z" fill="#6C63FF"/>
<path d="M360.225 121.374V123.071H361.922V126.466H360.225V128.164H364.468V121.374H360.225Z" fill="#6C63FF"/>
<path d="M364.467 154.476H360.225V161.266H364.467V154.476Z" fill="#6C63FF"/>
<path d="M360.225 143.442V145.139H361.922V148.535H360.225V150.232H364.468V143.442H360.225Z" fill="#6C63FF"/>
<path d="M364.467 176.544H360.225V183.334H364.467V176.544Z" fill="#6C63FF"/>
<path d="M364.467 205.402H360.225V212.192H364.467V205.402Z" fill="#6C63FF"/>
<path d="M360.225 165.51V167.207H361.922V170.602H360.225V172.3H364.468V165.51H360.225Z" fill="#6C63FF"/>
<path d="M360.225 217.285V218.982H361.922V222.377H360.225V224.075H364.468V217.285H360.225Z" fill="#6C63FF"/>
<path d="M384.834 34.7995H380.591V41.5896H384.834V34.7995Z" fill="#6C63FF"/>
<path d="M384.834 88.2719H380.591V95.0621H384.834V88.2719Z" fill="#6C63FF"/>
<path d="M386.531 197.763H380.591V198.612H386.531V197.763Z" fill="#6C63FF"/>
<path d="M380.591 55.1701V56.8674H382.288V60.2626H380.591V61.9599H384.834V55.1701H380.591Z" fill="#6C63FF"/>
<path d="M380.591 66.2037V67.9016H382.288V71.2968H380.591V72.9941H384.834V66.2037H380.591Z" fill="#6C63FF"/>
<path d="M380.591 77.2379V78.9357H382.288V82.3303H380.591V84.0282H384.834V77.2379H380.591Z" fill="#6C63FF"/>
<path d="M384.834 110.34H380.591V117.13H384.834V110.34Z" fill="#6C63FF"/>
<path d="M380.591 99.3061V101.003H382.288V104.399H380.591V106.096H384.834V99.3061H380.591Z" fill="#6C63FF"/>
<path d="M384.834 132.408H380.591V139.198H384.834V132.408Z" fill="#6C63FF"/>
<path d="M380.591 121.374V123.071H382.288V126.466H380.591V128.164H384.834V121.374H380.591Z" fill="#6C63FF"/>
<path d="M384.834 154.476H380.591V161.266H384.834V154.476Z" fill="#6C63FF"/>
<path d="M380.591 143.442V145.139H382.288V148.535H380.591V150.232H384.834V143.442H380.591Z" fill="#6C63FF"/>
<path d="M384.834 176.544H380.591V183.334H384.834V176.544Z" fill="#6C63FF"/>
<path d="M384.834 205.402H380.591V212.192H384.834V205.402Z" fill="#6C63FF"/>
<path d="M380.591 165.51V167.207H382.288V170.602H380.591V172.3H384.834V165.51H380.591Z" fill="#6C63FF"/>
<path d="M380.591 217.285V218.982H382.288V222.377H380.591V224.075H384.834V217.285H380.591Z" fill="#6C63FF"/>
<path d="M321.19 205.402V207.099H322.887V210.495H321.19V212.192H325.433V205.402H321.19Z" fill="#6C63FF"/>
<path d="M321.19 216.436V218.133H322.887V221.529H321.19V223.226H325.433V216.436H321.19Z" fill="#6C63FF"/>
<path d="M299.126 88.272V89.9693H300.824V93.3645H299.126V95.0623H303.37V88.272H299.126Z" fill="#6C63FF"/>
<path d="M299.126 131.559V133.257H300.824V136.652H299.126V138.349H303.37V131.559H299.126Z" fill="#6C63FF"/>
<path d="M299.126 142.593V144.291H300.824V147.686H299.126V149.383H303.37V142.593H299.126Z" fill="#6C63FF"/>
<path d="M299.126 164.661V166.359H300.824V169.754H299.126V171.451H303.37V164.661H299.126Z" fill="#6C63FF"/>
<path d="M299.126 196.065V197.763H300.824V201.158H299.126V202.856H303.37V196.065H299.126Z" fill="#6C63FF"/>
<path d="M299.126 205.402V207.099H300.824V210.495H299.126V212.192H303.37V205.402H299.126Z" fill="#6C63FF"/>
<path d="M347.496 36.497H343.253V43.2872H347.496V36.497Z" fill="#6C63FF"/>
<path d="M347.496 47.531H343.253V54.3212H347.496V47.531Z" fill="#6C63FF"/>
<path d="M347.496 59.4138H341.556V60.2626H347.496V59.4138Z" fill="#6C63FF"/>
<path d="M347.496 113.735H341.556V114.584H347.496V113.735Z" fill="#6C63FF"/>
<path d="M347.496 123.071H341.556V123.92H347.496V123.071Z" fill="#6C63FF"/>
<path d="M343.253 67.0529V68.7502H344.95V72.1454H343.253V73.8427H347.496V67.0529H343.253Z" fill="#6C63FF"/>
<path d="M343.253 88.272V89.9693H344.95V93.3645H343.253V95.0623H347.496V88.272H343.253Z" fill="#6C63FF"/>
<path d="M343.253 131.559V133.257H344.95V136.652H343.253V138.349H347.496V131.559H343.253Z" fill="#6C63FF"/>
<path d="M395.865 110.34H391.622V117.13H395.865V110.34Z" fill="#6C63FF"/>
<path d="M395.865 121.374H391.622V128.164H395.865V121.374Z" fill="#6C63FF"/>
<path d="M395.865 133.257H389.925V134.105H395.865V133.257Z" fill="#6C63FF"/>
<path d="M395.865 187.578H389.925V188.427H395.865V187.578Z" fill="#6C63FF"/>
<path d="M395.865 196.914H389.925V197.763H395.865V196.914Z" fill="#6C63FF"/>
<path d="M391.622 140.896V142.593H393.32V145.988H391.622V147.686H395.865V140.896H391.622Z" fill="#6C63FF"/>
<path d="M391.622 162.115V163.813H393.32V167.207H391.622V168.905H395.865V162.115H391.622Z" fill="#6C63FF"/>
<path d="M391.622 205.402V207.099H393.32V210.495H391.622V212.192H395.865V205.402H391.622Z" fill="#6C63FF"/>
<path d="M573 388.595H117.914V390H573V388.595Z" fill="#2F2E41"/>
<path d="M211.98 222.387V250.988L215.829 268.588C215.829 268.588 215.279 279.588 215.829 282.888C216.379 286.188 215.279 291.688 211.98 291.688C208.681 291.688 207.031 299.938 207.031 299.938C207.031 299.938 205.931 303.238 203.182 303.788C200.432 304.338 200.432 303.788 200.432 303.788L198.233 309.288L152.593 339.538L161.391 361.538C161.391 361.538 175.138 356.588 176.238 354.938C177.337 353.288 186.685 357.138 186.685 353.288C186.685 349.438 188.335 339.538 191.634 338.988C194.934 338.438 222.428 325.788 222.428 325.788C222.428 325.788 236.725 309.838 237.825 303.788C238.924 297.738 243.873 280.688 243.873 280.688L257.62 303.788V349.988L255.421 374.738L279.616 371.438C279.616 371.438 277.416 356.038 279.616 353.838C281.815 351.638 285.115 325.238 282.915 321.938C280.715 318.638 284.015 303.788 282.915 301.588C281.815 299.388 282.365 283.438 279.616 279.038C276.866 274.638 260.37 229.537 260.37 229.537L211.98 222.387Z" fill="#2F2E41"/>
<path d="M258.72 373.638C258.72 373.638 250.472 387.388 255.971 389.038C261.47 390.688 271.917 389.038 273.017 389.038C274.117 389.038 293.913 389.588 293.913 389.588C293.913 389.588 307.11 386.838 307.11 382.988C307.11 379.138 298.862 379.138 296.112 378.588C293.363 378.038 276.316 371.438 276.316 371.438L258.72 373.638Z" fill="#2F2E41"/>
<path d="M155.118 340.158C155.118 340.158 139.225 338.053 139.897 343.756C140.569 349.459 146.235 358.392 146.672 359.401C146.968 360.085 150.441 368.74 152.652 374.255C154.251 378.298 156.652 381.975 159.71 385.063C161.872 387.224 164.228 388.957 165.774 388.287C169.306 386.757 166.027 379.187 165.439 376.445C164.851 373.703 164.13 355.434 164.13 355.434L155.118 340.158Z" fill="#2F2E41"/>
<path d="M265.594 131.362L283.19 90.662C283.19 90.662 281.54 86.812 277.691 87.362C277.691 87.362 272.467 73.887 262.569 73.887C262.569 73.887 247.723 65.637 243.323 73.887C243.323 73.887 233.975 82.137 234.525 89.837C235.075 97.5371 235.625 103.037 235.625 103.037C235.625 103.037 226.827 104.137 228.477 108.537C230.126 112.937 230.676 112.937 228.477 114.587L226.277 116.237C226.277 116.237 180.637 157.487 205.931 217.987L208.131 227.337V236.138C208.131 236.138 263.669 236.688 263.669 236.138C263.669 235.588 262.569 232.288 264.769 230.087C266.968 227.887 266.968 224.587 266.968 224.587C266.968 224.587 264.769 213.587 265.869 210.287C266.968 206.987 267.518 192.687 265.319 189.387C263.119 186.087 264.219 159.687 264.219 159.687L269.168 150.337L267.518 144.837L265.869 139.337L265.594 131.362Z" fill="#8985A8"/>
<path opacity="0.1" d="M260.92 241.638C260.92 241.638 254.321 223.488 254.871 220.187C255.421 216.887 253.771 210.287 253.771 210.287L251.572 165.737C251.572 165.737 260.92 126.137 240.024 119.537C240.024 119.537 234.737 121.845 230.405 129.271C226.121 131.179 220.922 136.009 219.678 148.137C217.479 169.587 227.377 224.587 232.326 233.938C237.275 243.288 240.574 249.888 240.574 249.888L245.746 247.588C245.96 248.012 246.073 248.238 246.073 248.238L260.92 241.638Z" fill="black"/>
<path d="M263.944 126.412C264.855 126.412 265.594 125.673 265.594 124.762C265.594 123.851 264.855 123.112 263.944 123.112C263.033 123.112 262.294 123.851 262.294 124.762C262.294 125.673 263.033 126.412 263.944 126.412Z" fill="#F2F2F2"/>
<path d="M264.494 124.762H263.394V150.612H264.494V124.762Z" fill="#3F3D56"/>
<path d="M244.148 243.563L248.547 252.913C248.547 252.913 258.445 249.613 258.445 247.963C258.445 246.313 254.046 239.163 254.046 239.163L244.148 243.563Z" fill="#FFB8B8"/>
<path d="M237.825 119.537C237.825 119.537 225.177 125.037 222.978 146.487C220.778 167.937 230.676 222.937 235.625 232.288C240.574 241.638 243.873 248.238 243.873 248.238L258.72 241.638C258.72 241.638 252.122 223.488 252.671 220.188C253.221 216.887 251.572 210.287 251.572 210.287L249.372 165.737C249.372 165.737 258.72 126.137 237.825 119.537Z" fill="#8985A8"/>
</svg>
